<?xml version="1.0" encoding="utf-8"?>
<!-- Generator: Adobe Illustrator 24.1.2, SVG Export Plug-In . SVG Version: 6.00 Build 0)  -->
<svg version="1.1" id="Layer_1" xmlns="http://www.w3.org/2000/svg" xmlns:xlink="http://www.w3.org/1999/xlink" x="0px" y="0px"
	 viewBox="0 0 20 20" style="enable-background:new 0 0 20 20;" xml:space="preserve">
<style type="text/css">
	.st0{fill:#FFFFFF;}
</style>
<g>
	<path class="st0" d="M6,6L6,6C5.9,6,5.8,6.1,5.8,6.2S5.9,6.4,6,6.4l0,0c0.1,0,0.2-0.1,0.2-0.2C6.2,6.1,6.1,6,6,6z"/>
	<path class="st0" d="M7,6L7,6C6.9,6,6.8,6.1,6.8,6.2S6.9,6.4,7,6.4l0,0c0.1,0,0.2-0.1,0.2-0.2S7.2,6,7,6z"/>
	<path class="st0" d="M8.1,6L8.1,6C8,6,7.9,6.1,7.9,6.2S8,6.4,8.1,6.4l0,0c0.1,0,0.2-0.1,0.2-0.2S8.2,6,8.1,6z"/>
	<path class="st0" d="M14,6H9.9C9.8,6,9.7,6.1,9.7,6.2s0.1,0.2,0.2,0.2H14c0.1,0,0.2-0.1,0.2-0.2C14.2,6.1,14.1,6,14,6z"/>
	<path class="st0" d="M10.1,14.6c-0.1,0-0.1,0-0.1,0.1c0,0-0.1,0.1-0.1,0.1s0,0.1,0.1,0.1c0,0,0.1,0.1,0.1,0.1s0.1,0,0.1-0.1
		c0,0,0.1-0.1,0.1-0.1s0-0.1-0.1-0.1C10.3,14.6,10.2,14.6,10.1,14.6z"/>
	<path class="st0" d="M14.8,5H5.2C4.9,5,4.6,5.3,4.6,5.7v8.7c0,0.4,0.3,0.7,0.7,0.7h4c0.1,0,0.2-0.1,0.2-0.2s-0.1-0.2-0.2-0.2h-4
		c-0.1,0-0.2-0.1-0.2-0.2V7.5h10v6.9c0,0.1-0.1,0.2-0.2,0.2H11c-0.1,0-0.2,0.1-0.2,0.2S10.9,15,11,15h3.7c0.4,0,0.7-0.3,0.7-0.7V5.7
		C15.4,5.3,15.1,5,14.8,5z M5,7V5.7c0-0.1,0.1-0.2,0.2-0.2h9.5c0.1,0,0.2,0.1,0.2,0.2V7L5,7L5,7z"/>
	<path class="st0" d="M8.3,9.9c0-0.4-0.3-0.8-0.8-0.8H6.9c-0.1,0-0.2,0.1-0.2,0.2v2.2c0,0.1,0.1,0.2,0.2,0.2h0.7
		c0.4,0,0.8-0.3,0.8-0.8c0-0.2-0.1-0.4-0.2-0.6C8.3,10.3,8.3,10.1,8.3,9.9z M7.9,11c0,0.2-0.2,0.3-0.3,0.3H7.1v-0.7h0.5
		C7.8,10.6,7.9,10.8,7.9,11z M7.1,10.2V9.5h0.5c0.2,0,0.3,0.2,0.3,0.3s-0.2,0.3-0.3,0.3H7.1z"/>
	<path class="st0" d="M9,9.1c-0.1,0-0.2,0.1-0.2,0.2V11c0,0.4,0.3,0.7,0.7,0.7c0.1,0,0.2-0.1,0.2-0.2s-0.1-0.2-0.2-0.2
		c-0.2,0-0.3-0.1-0.3-0.3V9.3C9.2,9.2,9.1,9.1,9,9.1z"/>
	<path class="st0" d="M11.5,11c0-0.4-0.3-0.8-0.8-0.8S9.9,10.6,9.9,11s0.3,0.8,0.8,0.8S11.5,11.4,11.5,11z M10.3,11
		c0-0.2,0.2-0.3,0.3-0.3c0.2,0,0.3,0.2,0.3,0.3c0,0.2-0.2,0.3-0.3,0.3C10.5,11.3,10.3,11.2,10.3,11z"/>
	<path class="st0" d="M12.6,12.3c-0.2,0-0.3-0.2-0.3-0.3c0-0.1-0.1-0.2-0.2-0.2c-0.1,0-0.2,0.1-0.2,0.2c0,0.4,0.3,0.8,0.8,0.8
		c0.4,0,0.8-0.3,0.8-0.8v-1c0-0.4-0.3-0.8-0.8-0.8s-0.8,0.3-0.8,0.8s0.3,0.8,0.8,0.8c0.1,0,0.2,0,0.3-0.1V12
		C12.9,12.2,12.8,12.3,12.6,12.3z M12.6,11.3c-0.2,0-0.3-0.2-0.3-0.3c0-0.2,0.2-0.3,0.3-0.3c0.2,0,0.3,0.2,0.3,0.3
		C12.9,11.2,12.8,11.3,12.6,11.3z"/>
	<path class="st0" d="M6.9,13.8h6.3c0.1,0,0.2-0.1,0.2-0.2c0-0.1-0.1-0.2-0.2-0.2H6.9c-0.1,0-0.2,0.1-0.2,0.2
		C6.7,13.7,6.8,13.8,6.9,13.8z"/>
</g>
</svg>
