<?xml version="1.0" encoding="utf-8"?>
<!-- Generator: Adobe Illustrator 24.1.2, SVG Export Plug-In . SVG Version: 6.00 Build 0)  -->
<svg version="1.1" id="Capa_1" xmlns="http://www.w3.org/2000/svg" xmlns:xlink="http://www.w3.org/1999/xlink" x="0px" y="0px"
	 viewBox="0 0 20 20" style="enable-background:new 0 0 20 20;" xml:space="preserve">
<style type="text/css">
	.st0{fill:#FFFFFF;}
</style>
<g>
	<g>
		<path class="st0" d="M10,5c-2.8,0-5.1,2.3-5.1,5.1c0,2.3,1.5,4.2,3.5,4.9c0.3,0,0.3-0.1,0.3-0.2c0-0.1,0-0.4,0-0.9
			C7.3,14.2,7,13.2,7,13.2c-0.2-0.6-0.6-0.7-0.6-0.7c-0.5-0.3,0-0.3,0-0.3c0.5,0,0.8,0.5,0.8,0.5c0.5,0.8,1.2,0.6,1.5,0.4
			c0-0.3,0.2-0.6,0.3-0.7c-1.1-0.1-2.3-0.6-2.3-2.5c0-0.6,0.2-1,0.5-1.4C7.2,8.4,7,7.8,7.3,7.1c0,0,0.4-0.1,1.4,0.5
			C9.1,7.5,9.6,7.5,10,7.5s0.9,0.1,1.3,0.2c1-0.7,1.4-0.5,1.4-0.5c0.3,0.7,0.1,1.2,0.1,1.4c0.3,0.4,0.5,0.8,0.5,1.4
			c0,2-1.2,2.4-2.3,2.5c0.2,0.2,0.3,0.5,0.3,0.9c0,0.7,0,1.2,0,1.4c0,0.1,0.1,0.3,0.4,0.2c2-0.7,3.5-2.6,3.5-4.9
			C15.1,7.3,12.8,5,10,5z"/>
	</g>
</g>
</svg>
