<?xml version="1.0" encoding="utf-8"?>
<!-- Generator: Adobe Illustrator 24.1.2, SVG Export Plug-In . SVG Version: 6.00 Build 0)  -->
<svg version="1.1" id="Bold" xmlns="http://www.w3.org/2000/svg" xmlns:xlink="http://www.w3.org/1999/xlink" x="0px" y="0px"
	 viewBox="0 0 20 20" style="enable-background:new 0 0 20 20;" xml:space="preserve">
<style type="text/css">
	.st0{fill:#FFFFFF;}
</style>
<g>
	<path class="st0" d="M15,15L15,15L15,15v-3.7c0-1.8-0.4-3.2-2.5-3.2c-1,0-1.7,0.6-2,1.1h0V8.3h-2V15h2.1v-3.3
		c0-0.9,0.2-1.7,1.2-1.7c1.1,0,1.1,1,1.1,1.8V15H15z"/>
	<path class="st0" d="M5.2,8.3h2.1V15H5.2V8.3z"/>
	<path class="st0" d="M6.2,5C5.5,5,5,5.5,5,6.2s0.5,1.2,1.2,1.2s1.2-0.5,1.2-1.2C7.4,5.5,6.9,5,6.2,5z"/>
</g>
</svg>
