<?xml version="1.0" encoding="utf-8"?>
<!-- Generator: Adobe Illustrator 24.1.2, SVG Export Plug-In . SVG Version: 6.00 Build 0)  -->
<svg version="1.1" id="Layer_1" xmlns="http://www.w3.org/2000/svg" xmlns:xlink="http://www.w3.org/1999/xlink" x="0px" y="0px"
	 viewBox="0 0 20 20" style="enable-background:new 0 0 20 20;" xml:space="preserve">
<style type="text/css">
	.st0{fill:#FFFFFF;}
</style>
<path class="st0" d="M16,6.2c-0.4,0.2-0.8,0.3-1.2,0.4c0.2,0,0.5-0.4,0.6-0.5c0.2-0.2,0.3-0.5,0.4-0.7c0,0,0,0,0-0.1c0,0,0,0-0.1,0
	c-0.5,0.2-0.9,0.4-1.5,0.6c0,0-0.1,0-0.1,0c0,0-0.1-0.1-0.1-0.1c-0.2-0.2-0.4-0.3-0.7-0.4C13,5,12.6,5,12.3,5c-0.4,0-0.7,0.1-1,0.3
	c-0.3,0.2-0.6,0.4-0.8,0.7C10.2,6.3,10,6.6,9.9,7c-0.1,0.3-0.1,0.7,0,1c0,0.1,0,0.1-0.1,0.1c-2-0.3-3.7-1-5-2.5
	c-0.1-0.1-0.1-0.1-0.1,0c-0.6,0.9-0.3,2.3,0.4,3c0.1,0.1,0.2,0.2,0.3,0.3c0,0-0.5,0-1-0.3c-0.1,0-0.1,0-0.1,0c0,0.1,0,0.2,0,0.3
	c0.1,0.9,0.7,1.7,1.6,2c0.1,0,0.2,0.1,0.3,0.1c-0.2,0-0.4,0.1-0.9,0c-0.1,0-0.1,0-0.1,0.1c0.4,1.1,1.3,1.5,2,1.7c0.1,0,0.2,0,0.3,0
	c0,0,0,0,0,0c-0.2,0.3-1,0.6-1.4,0.7c-0.7,0.2-1.4,0.3-2.1,0.3c-0.1,0-0.1,0-0.2,0c0,0,0,0,0,0.1c0.1,0.1,0.3,0.2,0.4,0.3
	c0.4,0.2,0.9,0.4,1.4,0.6c2.5,0.7,5.3,0.2,7.1-1.7c1.5-1.5,2-3.5,2-5.5c0-0.1,0.1-0.1,0.1-0.2c0.4-0.3,0.7-0.6,1-1
	C16.1,6.3,16.1,6.2,16,6.2C16.1,6.2,16.1,6.2,16,6.2C16.1,6.2,16.1,6.2,16,6.2z"/>
</svg>
